# xmcd CD database file
#
# Track frame offsets:
#	150
#	15089
#	27947
#	42413
#	65548
#	80452
#	92067
#	107928
#	132780
#	155181
#	169465
#	187777
#
# Disc length: 2856 seconds
#
# Revision: 0
# Processed by: cddbd v1.5.2PL0 Copyright (c) Steve Scherf et al.
# Submitted via: CDex 1.60beta1-cs1
#
DISCID=960b260c
DTITLE=Various Artist - Famous Dave's Legends of the Blues Vol 2
DYEAR=2006
DGENRE=Blues
TTITLE0=Marie Marie
TTITLE1=Messin with the Kid
TTITLE2=On Font Street
TTITLE3=Someday After Awhile
TTITLE4=Get Up!
TTITLE5=One More Shot
TTITLE6=Wrecking Crew
TTITLE7=Juke Joint Blues
TTITLE8=Still Got the Blues
TTITLE9=Woke Up This Morn
TTITLE10=I Make Love
TTITLE11=I'd Rather Go Blind
EXTD=YEAR: 2006
EXTT0=
EXTT1=
EXTT2=
EXTT3=
EXTT4=
EXTT5=
EXTT6=
EXTT7=
EXTT8=
EXTT9=
EXTT10=
EXTT11=
PLAYORDER=
